<svg xmlns="http://www.w3.org/2000/svg" xmlns:xlink="http://www.w3.org/1999/xlink" width="44" height="44" viewBox="0 0 44 44">
    <defs>
        <path id="a" d="M0 .008h25.992v25.989H0z"/>
    </defs>
    <g fill="none" fill-rule="evenodd">
        <circle cx="22" cy="22" r="22" fill="#006F46" fill-rule="nonzero"/>
        <g transform="translate(9 9)">
            <mask id="b" fill="#fff">
                <use xlink:href="#a"/>
            </mask>
            <path fill="#FFF" d="M12.996.008c-3.53 0-3.972.015-5.358.078C6.254.15 5.31.37 4.483.69a6.37 6.37 0 0 0-2.302 1.5A6.37 6.37 0 0 0 .682 4.49c-.321.827-.54 1.772-.604 3.155C.015 9.032 0 9.475 0 13.004c0 3.53.015 3.972.078 5.358.063 1.384.283 2.328.604 3.155a6.37 6.37 0 0 0 1.5 2.302 6.37 6.37 0 0 0 2.301 1.499c.827.321 1.771.54 3.155.604 1.386.063 1.828.078 5.358.078 3.53 0 3.972-.015 5.358-.078 1.383-.063 2.328-.283 3.155-.604a6.37 6.37 0 0 0 2.302-1.5 6.37 6.37 0 0 0 1.499-2.301c.32-.827.54-1.771.604-3.155.063-1.386.078-1.828.078-5.358 0-3.53-.015-3.972-.078-5.358-.064-1.383-.283-2.328-.604-3.155a6.37 6.37 0 0 0-1.5-2.302A6.37 6.37 0 0 0 21.51.69c-.827-.32-1.772-.54-3.155-.604-1.386-.063-1.829-.078-5.358-.078zm0 2.342c3.47 0 3.881.013 5.251.076 1.267.057 1.956.27 2.414.447.606.236 1.039.517 1.494.972.455.455.736.888.972 1.494.178.458.39 1.147.447 2.414.063 1.37.076 1.781.076 5.251 0 3.47-.013 3.881-.076 5.252-.057 1.267-.27 1.955-.447 2.413a4.026 4.026 0 0 1-.972 1.494 4.026 4.026 0 0 1-1.494.972c-.458.178-1.147.39-2.414.448-1.37.062-1.78.075-5.251.075-3.47 0-3.881-.013-5.252-.075-1.267-.058-1.955-.27-2.413-.448a4.026 4.026 0 0 1-1.494-.972 4.027 4.027 0 0 1-.972-1.494c-.178-.458-.39-1.146-.448-2.413-.062-1.37-.075-1.782-.075-5.252 0-3.47.013-3.881.075-5.251.058-1.267.27-1.956.448-2.414.236-.606.517-1.039.972-1.494a4.026 4.026 0 0 1 1.494-.972c.458-.178 1.146-.39 2.413-.447 1.37-.063 1.782-.076 5.252-.076z" mask="url(#b)"/>
        </g>
        <path fill="#FFF" d="M21.5 25.72a4.22 4.22 0 1 1 0-8.44 4.22 4.22 0 0 1 0 8.44zm0-10.72a6.5 6.5 0 1 0 0 13 6.5 6.5 0 0 0 0-13zM30 14.5a1.5 1.5 0 1 1-3 0 1.5 1.5 0 0 1 3 0"/>
    </g>
</svg>
